<svg width="25" height="25" viewBox="0 0 25 25" fill="none" xmlns="http://www.w3.org/2000/svg">
<g id="SVG" clip-path="url(#clip0_1_66)">
<g id="Group">
<path id="Vector" d="M19.143 11.34C19.1427 11.4794 19.0872 11.6129 18.9886 11.7113C18.89 11.8097 18.7563 11.865 18.617 11.865H17.155V12.803H18.617C18.6878 12.7999 18.7585 12.8112 18.8248 12.8362C18.8912 12.8611 18.9518 12.8993 19.003 12.9483C19.0542 12.9973 19.0949 13.0562 19.1227 13.1213C19.1506 13.1865 19.1649 13.2566 19.1649 13.3275C19.1649 13.3984 19.1506 13.4685 19.1227 13.5337C19.0949 13.5989 19.0542 13.6578 19.003 13.7068C18.9518 13.7558 18.8912 13.7939 18.8248 13.8189C18.7585 13.8438 18.6878 13.8551 18.617 13.852H16.63C16.4915 13.851 16.3591 13.7954 16.2614 13.6973C16.1636 13.5992 16.1085 13.4665 16.108 13.328V9.35202C16.108 9.06502 16.343 8.82702 16.633 8.82702H18.621C18.7603 8.82742 18.8936 8.88311 18.9918 8.98185C19.09 9.08059 19.1449 9.21428 19.1445 9.35352C19.1441 9.49276 19.0884 9.62614 18.9897 9.72431C18.8909 9.82249 18.7572 9.87742 18.618 9.87702H17.156V10.815H18.618C18.909 10.815 19.143 11.052 19.143 11.34ZM15.045 13.825C14.9913 13.842 14.9353 13.8504 14.879 13.85C14.7967 13.8518 14.7152 13.8339 14.6412 13.7977C14.5673 13.7615 14.5031 13.7081 14.454 13.642L12.418 10.878V13.328C12.408 13.46 12.3485 13.5834 12.2514 13.6734C12.1544 13.7634 12.0269 13.8134 11.8945 13.8134C11.7621 13.8134 11.6347 13.7634 11.5376 13.6734C11.4405 13.5834 11.381 13.46 11.371 13.328V9.35202C11.3707 9.21375 11.4254 9.08102 11.5228 8.98297C11.6203 8.88492 11.7527 8.82955 11.891 8.82902C12.053 8.82902 12.203 8.91502 12.303 9.04002L14.355 11.815V9.35202C14.355 9.06502 14.59 8.82702 14.88 8.82702C15.167 8.82702 15.405 9.06502 15.405 9.35202V13.328C15.4049 13.4382 15.37 13.5455 15.3054 13.6347C15.2408 13.724 15.1496 13.7905 15.045 13.825ZM10.095 13.852C9.95637 13.8512 9.82365 13.7957 9.72571 13.6976C9.62777 13.5995 9.57254 13.4667 9.57201 13.328V9.35202C9.57201 9.06502 9.80801 8.82702 10.097 8.82702C10.386 8.82702 10.621 9.06502 10.621 9.35202V13.328C10.6202 13.4671 10.5645 13.6002 10.466 13.6984C10.3674 13.7965 10.2341 13.8518 10.095 13.852ZM8.56501 13.852H6.57801C6.43919 13.8512 6.30626 13.7958 6.208 13.6977C6.10974 13.5997 6.05406 13.4668 6.05301 13.328V9.35202C6.06449 9.22069 6.12476 9.09843 6.22195 9.00937C6.31914 8.9203 6.44618 8.87089 6.57801 8.87089C6.70984 8.87089 6.83688 8.9203 6.93407 9.00937C7.03126 9.09843 7.09154 9.22069 7.10301 9.35202V12.802H8.56701C8.70625 12.802 8.83979 12.8573 8.93824 12.9558C9.0367 13.0542 9.09201 13.1878 9.09201 13.327C9.09201 13.4663 9.0367 13.5998 8.93824 13.6983C8.83979 13.7967 8.70625 13.852 8.56701 13.852H8.56501ZM12.48 3.07202C6.96701 3.07202 2.48001 6.71502 2.48001 11.19C2.48001 15.2 6.03801 18.559 10.843 19.197C11.168 19.265 11.612 19.412 11.724 19.689C11.824 19.939 11.79 20.327 11.756 20.589L11.619 21.439C11.582 21.689 11.419 22.427 12.493 21.976C13.569 21.527 18.257 18.578 20.357 16.164C21.793 14.589 22.48 12.977 22.48 11.19C22.48 6.71502 17.992 3.07202 12.48 3.07202Z" fill="#36D399"/>
</g>
</g>
<defs>
<clipPath id="clip0_1_66">
<rect width="24" height="24" fill="white" transform="translate(0.480011 0.5)"/>
</clipPath>
</defs>
</svg>
