<svg width="17" height="11" viewBox="0 0 17 11" fill="none" xmlns="http://www.w3.org/2000/svg">
<path id="Vector" d="M16.0801 3.90006C14.7851 3.98756 12.9376 5.26756 12.0026 5.68756C11.2751 6.01506 10.6476 6.29756 10.1001 6.29756C9.53505 6.29756 9.45005 5.89256 9.56755 5.00006C9.59505 4.80006 9.86005 3.02006 8.50005 3.09756C7.87255 3.13506 6.89255 3.71756 4.26255 6.24756L5.30005 3.65506C6.06005 1.75756 3.97005 -0.132443 2.05755 1.08506L0.685054 2.00756C0.500054 2.12506 0.445054 2.37256 0.562554 2.56006L0.992554 3.23506C1.11005 3.42256 1.35755 3.47756 1.54505 3.35756L2.99505 2.38506C3.45505 2.09256 4.01255 2.56506 3.81255 3.06256L1.35755 9.20256C1.18755 9.62506 1.42505 10.3001 2.10005 10.3001C2.30755 10.3001 2.51255 10.2201 2.66505 10.0651C3.72005 9.01006 6.53255 6.29756 7.94505 5.17006C7.89005 5.88256 7.89255 6.64256 8.46005 7.26506C8.84255 7.68506 9.39255 7.89756 10.0976 7.89756C10.9876 7.89756 11.7976 7.53256 12.6551 7.14756C13.4801 6.77756 15.1301 5.58256 16.1151 5.50256C16.3276 5.48506 16.4951 5.32006 16.4951 5.10756V4.30506C16.5001 4.07756 16.3076 3.88506 16.0801 3.90006Z" fill="#111827"/>
</svg>
