<svg width="25" height="25" viewBox="0 0 25 25" fill="none" xmlns="http://www.w3.org/2000/svg">
<g id="SVG" clip-path="url(#clip0_1_61)">
<g id="Group">
<path id="Vector" d="M2.48401 22.5L3.83601 17.532C2.94515 16.0049 2.47711 14.268 2.48001 12.5C2.48001 6.977 6.95701 2.5 12.48 2.5C18.003 2.5 22.48 6.977 22.48 12.5C22.48 18.023 18.003 22.5 12.48 22.5C10.7128 22.5029 8.97667 22.0352 7.45001 21.145L2.48401 22.5ZM8.87101 7.808C8.74187 7.81602 8.61568 7.85003 8.50001 7.908C8.39153 7.96943 8.29251 8.04622 8.20601 8.136C8.08601 8.249 8.01801 8.347 7.94501 8.442C7.57542 8.923 7.37662 9.51342 7.38001 10.12C7.38201 10.61 7.51001 11.087 7.71001 11.533C8.11901 12.435 8.79201 13.39 9.68101 14.275C9.89501 14.488 10.104 14.702 10.329 14.901C11.4324 15.8725 12.7473 16.573 14.169 16.947L14.738 17.034C14.923 17.044 15.108 17.03 15.294 17.021C15.5852 17.006 15.8696 16.9271 16.127 16.79C16.293 16.702 16.371 16.658 16.51 16.57C16.51 16.57 16.553 16.542 16.635 16.48C16.77 16.38 16.853 16.309 16.965 16.192C17.048 16.106 17.12 16.005 17.175 15.89C17.253 15.727 17.331 15.416 17.363 15.157C17.387 14.959 17.38 14.851 17.377 14.784C17.373 14.677 17.284 14.566 17.187 14.519L16.605 14.258C16.605 14.258 15.735 13.879 15.204 13.637C15.148 13.6126 15.088 13.5987 15.027 13.596C14.9586 13.589 14.8895 13.5967 14.8243 13.6186C14.7591 13.6405 14.6993 13.6761 14.649 13.723V13.721C14.644 13.721 14.577 13.778 13.854 14.654C13.8125 14.7098 13.7554 14.7519 13.6898 14.7751C13.6243 14.7982 13.5533 14.8013 13.486 14.784C13.4209 14.7666 13.357 14.7445 13.295 14.718C13.171 14.666 13.128 14.646 13.043 14.609L13.038 14.607C12.4659 14.3572 11.9362 14.0198 11.468 13.607C11.342 13.497 11.225 13.377 11.105 13.261C10.7116 12.8842 10.3687 12.458 10.085 11.993L10.026 11.898C9.98363 11.8342 9.94937 11.7653 9.92401 11.693C9.88601 11.546 9.98501 11.428 9.98501 11.428C9.98501 11.428 10.228 11.162 10.341 11.018C10.4351 10.8983 10.5229 10.7738 10.604 10.645C10.722 10.455 10.759 10.26 10.697 10.109C10.417 9.425 10.127 8.744 9.82901 8.068C9.77001 7.934 9.59501 7.838 9.43601 7.819C9.38201 7.813 9.32801 7.807 9.27401 7.803C9.13972 7.79633 9.00514 7.79866 8.87101 7.808Z" fill="#37CDBE"/>
</g>
</g>
<defs>
<clipPath id="clip0_1_61">
<rect width="24" height="24" fill="white" transform="translate(0.480011 0.5)"/>
</clipPath>
</defs>
</svg>
